<?xml version="1.0" encoding="UTF-8" standalone="no"?>
<!-- Created with Inkscape (http://www.inkscape.org/) -->
<svg xmlns:dc="http://purl.org/dc/elements/1.1/" xmlns:cc="http://creativecommons.org/ns#" xmlns:rdf="http://www.w3.org/1999/02/22-rdf-syntax-ns#" xmlns:svg="http://www.w3.org/2000/svg" xmlns="http://www.w3.org/2000/svg" xmlns:xlink="http://www.w3.org/1999/xlink" xmlns:sodipodi="http://sodipodi.sourceforge.net/DTD/sodipodi-0.dtd" xmlns:inkscape="http://www.inkscape.org/namespaces/inkscape" width="400" height="189" id="svg2" version="1.1" inkscape:version="0.48.0 r9654" sodipodi:docname="Nowy dokument 1">
  <defs id="defs4">
    <clipPath clipPathUnits="userSpaceOnUse" id="clipPath3026">
      <path sodipodi:nodetypes="ssccss" inkscape:connector-curvature="0" id="path3028" d="m 548.18304,772.83984 c -7.49144,0 -13.53125,6.03981 -13.53125,13.53125 l 0,10.54508 27.03125,0 0,-10.54508 c 0,-7.49144 -6.00856,-13.53125 -13.5,-13.53125 z" style="color:#000000;fill:#999999;fill-opacity:1;fill-rule:nonzero;stroke:none;stroke-width:0.5;marker:none;visibility:visible;display:inline;overflow:visible;enable-background:accumulate"/>
    </clipPath>
    <filter inkscape:collect="always" id="filter3802" x="-0.21390177" width="1.4278035" y="-0.070566099" height="1.1411322">
      <feGaussianBlur inkscape:collect="always" stdDeviation="0.80419684" id="feGaussianBlur3804"/>
    </filter>
    <clipPath clipPathUnits="userSpaceOnUse" id="clipPath3026-3">
      <path sodipodi:nodetypes="ssccss" inkscape:connector-curvature="0" id="path3028-9" d="m 548.18304,772.83984 c -7.49144,0 -13.53125,6.03981 -13.53125,13.53125 l 0,10.54508 27.03125,0 0,-10.54508 c 0,-7.49144 -6.00856,-13.53125 -13.5,-13.53125 z" style="color:#000000;fill:#999999;fill-opacity:1;fill-rule:nonzero;stroke:none;stroke-width:0.5;marker:none;visibility:visible;display:inline;overflow:visible;enable-background:accumulate"/>
    </clipPath>
    <filter color-interpolation-filters="sRGB" inkscape:collect="always" id="filter3802-2" x="-0.21390177" width="1.4278035" y="-0.070566095" height="1.1411322">
      <feGaussianBlur inkscape:collect="always" stdDeviation="0.80419684" id="feGaussianBlur3804-6"/>
    </filter>
    <clipPath clipPathUnits="userSpaceOnUse" id="clipPath3026-3-0">
      <path sodipodi:nodetypes="ssccss" inkscape:connector-curvature="0" id="path3028-9-8" d="m 548.18304,772.83984 c -7.49144,0 -13.53125,6.03981 -13.53125,13.53125 l 0,10.54508 27.03125,0 0,-10.54508 c 0,-7.49144 -6.00856,-13.53125 -13.5,-13.53125 z" style="color:#000000;fill:#999999;fill-opacity:1;fill-rule:nonzero;stroke:none;stroke-width:0.5;marker:none;visibility:visible;display:inline;overflow:visible;enable-background:accumulate"/>
    </clipPath>
    <filter color-interpolation-filters="sRGB" inkscape:collect="always" id="filter3802-2-4" x="-0.21390177" width="1.4278035" y="-0.070566095" height="1.1411322">
      <feGaussianBlur inkscape:collect="always" stdDeviation="0.80419684" id="feGaussianBlur3804-6-8"/>
    </filter>
    <filter color-interpolation-filters="sRGB" inkscape:collect="always" id="filter3876-7">
      <feGaussianBlur inkscape:collect="always" stdDeviation="0.38460416" id="feGaussianBlur3878-0"/>
    </filter>
    <radialGradient inkscape:collect="always" xlink:href="#linearGradient3888-9" id="radialGradient3894-1" cx="191.04408" cy="111.95341" fx="191.04408" fy="111.95341" r="4.0881863" gradientUnits="userSpaceOnUse" gradientTransform="matrix(1.0864613,-0.0036533,0.00336255,0.99999435,-16.894371,0.6985736)"/>
    <linearGradient inkscape:collect="always" id="linearGradient3888-9">
      <stop style="stop-color:#9d9d9d;stop-opacity:1" offset="0" id="stop3890-7"/>
      <stop style="stop-color:#121212;stop-opacity:1" offset="1" id="stop3892-0"/>
    </linearGradient>
  </defs>
  <sodipodi:namedview id="base" pagecolor="#ffffff" bordercolor="#666666" borderopacity="1.0" inkscape:pageopacity="0.0" inkscape:pageshadow="2" inkscape:zoom="2.335" inkscape:cx="200" inkscape:cy="94.5" inkscape:document-units="px" inkscape:current-layer="layer2" showgrid="false" fit-margin-top="0" fit-margin-left="0" fit-margin-right="0" fit-margin-bottom="0" inkscape:window-width="1440" inkscape:window-height="820" inkscape:window-x="-8" inkscape:window-y="-8" inkscape:window-maximized="1"/>
  <metadata id="metadata7">
    <rdf:RDF>
      <cc:Work rdf:about="">
        <dc:format>image/svg+xml</dc:format>
        <dc:type rdf:resource="http://purl.org/dc/dcmitype/StillImage"/>
        <dc:title/>
      </cc:Work>
    </rdf:RDF>
  </metadata>
  <g inkscape:groupmode="layer" id="layer2" inkscape:label="Warstwa" style="display:inline">
    <rect style="color:#000000;fill:#000000;fill-opacity:1;fill-rule:nonzero;stroke:none;stroke-width:1;marker:none;visibility:visible;display:inline;overflow:visible;enable-background:accumulate" id="rect4080" width="400" height="189" x="0" y="0"/>
    <path transform="translate(-0.96029719,0.34275757)" sodipodi:type="arc" style="color:#000000;fill:#ffff00;fill-opacity:1;fill-rule:nonzero;stroke:none;stroke-width:0.5;marker:none;visibility:visible;display:inline;overflow:visible;enable-background:accumulate" id="path3880" sodipodi:cx="206.61064" sodipodi:cy="144.65891" sodipodi:rx="7.861897" sodipodi:ry="7.861897" d="m 214.47254,144.65891 a 7.861897,7.861897 0 1 1 -15.7238,0 7.861897,7.861897 0 1 1 15.7238,0 z"/>
    <path transform="translate(156.90659,-12.865233)" d="m 214.47254,144.65891 a 7.861897,7.861897 0 1 1 -15.7238,0 7.861897,7.861897 0 1 1 15.7238,0 z" sodipodi:ry="7.861897" sodipodi:rx="7.861897" sodipodi:cy="144.65891" sodipodi:cx="206.61064" id="path3882" style="color:#000000;fill:#ffff00;fill-opacity:1;fill-rule:nonzero;stroke:none;stroke-width:0.5;marker:none;visibility:visible;display:inline;overflow:visible;enable-background:accumulate" sodipodi:type="arc"/>
    <path style="color:#000000;fill:none;stroke:#800000;stroke-width:1;stroke-linecap:butt;stroke-linejoin:round;stroke-miterlimit:4;stroke-opacity:1;stroke-dasharray:none;stroke-dashoffset:0;marker:none;visibility:visible;display:inline;overflow:visible;enable-background:accumulate" d="M 62.636957,131.52707 206.2867,110.84685 349.60289,132.52773 205.06367,157.54413 z" id="path3896" inkscape:connector-curvature="0"/>
    <path transform="matrix(4.5799999,0,0,4.5799999,-739.68295,-517.69335)" d="m 214.47254,144.65891 a 7.861897,7.861897 0 1 1 -15.7238,0 7.861897,7.861897 0 1 1 15.7238,0 z" sodipodi:ry="7.861897" sodipodi:rx="7.861897" sodipodi:cy="144.65891" sodipodi:cx="206.61064" id="path3884" style="color:#000000;fill:none;stroke:#4d4d4d;stroke-width:0.21834062;marker:none;visibility:visible;display:inline;overflow:visible;enable-background:accumulate" sodipodi:type="arc"/>
    <path style="color:#000000;fill:none;stroke:#800000;stroke-width:1;stroke-linecap:butt;stroke-linejoin:round;stroke-miterlimit:4;stroke-opacity:1;stroke-dasharray:none;stroke-dashoffset:0;marker:none;visibility:visible;display:inline;overflow:visible;enable-background:accumulate" d="M 62.414589,131.52707 206.73143,99.506076 349.26934,132.41655" id="path3898" inkscape:connector-curvature="0"/>
    <path sodipodi:type="arc" style="color:#000000;fill:url(#radialGradient3894-1);fill-opacity:1;stroke:none;stroke-width:1;marker:none;visibility:visible;display:inline;overflow:visible;enable-background:accumulate" id="path3886" sodipodi:cx="190.57237" sodipodi:cy="112.89684" sodipodi:rx="4.0881863" sodipodi:ry="4.0881863" d="m 194.66056,112.89684 a 4.0881863,4.0881863 0 1 1 -8.17637,0 4.0881863,4.0881863 0 1 1 8.17637,0 z" transform="matrix(-0.04221587,0.99910851,-0.99910851,-0.04221587,310.45345,-72.396843)"/>
    <text xml:space="preserve" style="font-size:14px;font-style:normal;font-variant:normal;font-weight:bold;font-stretch:normal;text-align:center;text-anchor:middle;color:#000000;fill:#999999;stroke:none;stroke-width:1;marker:none;visibility:visible;display:inline;overflow:visible;enable-background:accumulate;font-family:Arial;-inkscape-font-specification:Arial Bold" x="220.07352" y="125.30077" id="text3900"><tspan sodipodi:role="line" id="tspan3902" x="220.07352" y="125.30077">Planet</tspan></text>
    <text xml:space="preserve" style="font-size:14px;font-style:normal;font-variant:normal;font-weight:bold;font-stretch:normal;text-align:center;text-anchor:middle;color:#000000;fill:#ffff00;fill-opacity:1;fill-rule:nonzero;stroke:none;stroke-width:1;marker:none;visibility:visible;display:inline;overflow:visible;enable-background:accumulate;font-family:Arial;-inkscape-font-specification:Arial Bold" x="241.86557" y="144.42442" id="text3904"><tspan sodipodi:role="line" id="tspan3906" x="241.86557" y="144.42442">Lens</tspan><tspan sodipodi:role="line" x="241.86557" y="161.92442" id="tspan3908">star</tspan></text>
    <text id="text3910" y="151.98491" x="363.27847" style="font-size:14px;font-style:normal;font-variant:normal;font-weight:bold;font-stretch:normal;text-align:center;text-anchor:middle;color:#000000;fill:#ffff00;fill-opacity:1;fill-rule:nonzero;stroke:none;stroke-width:1;marker:none;visibility:visible;display:inline;overflow:visible;enable-background:accumulate;font-family:Arial;-inkscape-font-specification:Arial Bold" xml:space="preserve"><tspan id="tspan3914" y="151.98491" x="363.27847" sodipodi:role="line">Source</tspan><tspan y="169.48491" x="363.27847" sodipodi:role="line" id="tspan3918">star</tspan></text>
    <text xml:space="preserve" style="font-size:14px;font-style:normal;font-variant:normal;font-weight:bold;font-stretch:normal;text-align:center;text-anchor:middle;color:#000000;fill:#000080;fill-opacity:1;fill-rule:nonzero;stroke:none;stroke-width:1;marker:none;visibility:visible;display:inline;overflow:visible;enable-background:accumulate;font-family:Arial;-inkscape-font-specification:Arial Bold" x="38.621189" y="163.54808" id="text3920"><tspan sodipodi:role="line" id="tspan3922" x="38.621189" y="163.54808">Observer</tspan></text>
    <text xml:space="preserve" style="font-size:24px;font-style:normal;font-variant:normal;font-weight:bold;font-stretch:normal;text-align:center;text-anchor:middle;color:#000000;fill:#ffffff;fill-opacity:1;fill-rule:nonzero;stroke:none;stroke-width:1;marker:none;visibility:visible;display:inline;overflow:visible;enable-background:accumulate;font-family:Arial;-inkscape-font-specification:Arial Bold" x="201.83932" y="25.67992" id="text3924"><tspan sodipodi:role="line" id="tspan3926" x="201.83932" y="25.67992">Gravitation microlensing</tspan></text>
    <path transform="matrix(0.37104825,0,0,0.37104825,-115.57463,-219.29517)" sodipodi:type="arc" id="path3928" style="fill:#ffffff;stroke:none;display:inline" sodipodi:cx="623.32825" sodipodi:cy="680.08252" sodipodi:rx="1.5" sodipodi:ry="1.5" d="m 624.82825,680.08252 a 1.5,1.5 0 1 1 -3,0 1.5,1.5 0 1 1 3,0 z"/>
    <path transform="matrix(0.37104825,0,0,0.37104825,-92.630941,-220.08635)" sodipodi:type="arc" id="path3930" style="fill:#ffffff;stroke:none;display:inline" sodipodi:cx="659.8075" sodipodi:cy="678.82458" sodipodi:rx="1.5" sodipodi:ry="1.5" d="m 661.3075,678.82458 a 1.5,1.5 0 1 1 -3,0 1.5,1.5 0 1 1 3,0 z"/>
    <path transform="matrix(0.37104825,0,0,0.37104825,-29.338103,-220.28413)" sodipodi:type="arc" id="path3932" style="fill:#ffffff;stroke:none;display:inline" sodipodi:cx="760.43976" sodipodi:cy="678.51013" sodipodi:rx="1.5" sodipodi:ry="1.5" d="m 761.93976,678.51013 a 1.5,1.5 0 1 1 -3,0 1.5,1.5 0 1 1 3,0 z"/>
    <path transform="matrix(0.16139767,0,0,0.16139767,-21.073886,-77.029949)" sodipodi:type="arc" id="path3934" style="fill:#ffffff;stroke:none;display:inline" sodipodi:cx="580.55957" sodipodi:cy="680.08252" sodipodi:rx="1.5" sodipodi:ry="1.5" d="m 582.05957,680.08252 a 1.5,1.5 0 1 1 -3,0 1.5,1.5 0 1 1 3,0 z"/>
    <path transform="matrix(0.16139767,0,0,0.16139767,220.4938,-101.81965)" sodipodi:type="arc" id="path3936" style="fill:#ffffff;stroke:none;display:inline" sodipodi:cx="868.61945" sodipodi:cy="650.52179" sodipodi:rx="1.5" sodipodi:ry="1.5" d="m 870.11945,650.52179 a 1.5,1.5 0 1 1 -3,0 1.5,1.5 0 1 1 3,0 z"/>
    <g transform="translate(-506.68783,-646.24122)" style="display:inline" id="g3818">
      <path sodipodi:nodetypes="ssccss" inkscape:connector-curvature="0" id="rect2998" transform="translate(505.71429,646.43359)" d="m 42.46875,126.40625 c -7.491444,0 -13.53125,6.03981 -13.53125,13.53125 l 0,10.54508 27.03125,0 0,-10.54508 c 0,-7.49144 -6.008556,-13.53125 -13.5,-13.53125 z" style="color:#000000;fill:#cccccc;fill-opacity:1;fill-rule:nonzero;stroke:none;stroke-width:0.5;marker:none;visibility:visible;display:inline;overflow:visible;enable-background:accumulate"/>
      <path inkscape:connector-curvature="0" id="rect3000" transform="translate(505.71429,646.43359)" d="m 42.46875,123.75 c -0.135652,0 -0.271463,0.0278 -0.40625,0.0312 l 0,3.28125 c 0.10675,-0.003 0.20506,0 0.3125,0 6.73374,0 12.15625,5.42251 12.15625,12.15625 l 0,0.40625 3.28125,0 0,-0.53125 c 0,-8.50219 -6.841555,-15.34375 -15.34375,-15.34375 z" style="color:#000000;fill:#f2f2f2;fill-opacity:1;fill-rule:nonzero;stroke:none;stroke-width:0.5;marker:none;visibility:visible;display:inline;overflow:visible;enable-background:accumulate"/>
      <g style="filter:url(#filter3802-2-4)" clip-path="url(#clipPath3026-3-0)" id="g3020">
        <path style="color:#000000;fill:#ececec;fill-opacity:1;fill-rule:nonzero;stroke:none;stroke-width:0.5;marker:none;visibility:visible;display:inline;overflow:visible;filter:url(#filter3876-7);enable-background:accumulate" d="m 37.357827,154.42177 0,-15.89931 c -0.374464,-5.7364 4.927877,-9.16462 3.780257,-11.00722 5.102315,-0.27097 10.60487,4.78369 10.395705,10.3957 l 0,16.45524 z" id="path3016" inkscape:connector-curvature="0" transform="translate(505.71429,646.43359)" sodipodi:nodetypes="cccccc"/>
        <path sodipodi:nodetypes="cccccc" transform="translate(505.71429,646.43359)" inkscape:connector-curvature="0" id="path3018" d="m 46.363732,154.42177 0,-15.89931 c 0.181456,-5.7364 -2.076715,-8.44193 -5.225648,-11.00722 3.101003,0.89647 8.93711,5.28402 8.727945,10.89603 l 0,16.45524 z" style="color:#000000;fill:#ffffff;fill-opacity:1;fill-rule:nonzero;stroke:none;stroke-width:0.5;marker:none;visibility:visible;display:inline;overflow:visible;enable-background:accumulate"/>
      </g>
    </g>
  </g>
</svg>